<svg class="bc-logo" width="312px" height="42px" viewBox="0 0 312 42" version="1.1" xmlns="http://www.w3.org/2000/svg" xmlns:xlink="http://www.w3.org/1999/xlink" xmlns:sketch="http://www.bohemiancoding.com/sketch/ns">
	<g id="Page-1" stroke="none" stroke-width="1" fill="none" fill-rule="evenodd" sketch:type="MSPage">
	  <g id="Artboard-1" sketch:type="MSArtboardGroup">
	    <g id="Logo" sketch:type="MSLayerGroup" transform="translate(6.000000, 6.000000)">
				<path d="M21.0544737,15.0686842 C21.0544737,11.7986842 18.4034211,9.14763158 15.1334211,9.14763158 C11.8626316,9.14763158 9.21236842,11.7986842 9.21236842,15.0686842 C9.21236842,18.3386842 11.8626316,20.9897368 15.1334211,20.9897368 C18.4034211,20.9897368 21.0544737,18.3386842 21.0544737,15.0686842" id="Fill-1" fill="#4DAAA7" sketch:type="MSShapeGroup"></path>
				<path d="M25.2828947,12.8321053 L29.8326316,12.8321053 C28.7510526,5.69052632 22.5718421,0.200526316 15.1334211,0.200526316 C13.0294737,0.200526316 11.0273684,0.641842105 9.21236842,1.43368421 L9.21236842,6.53210526 C10.8939474,5.36210526 12.9339474,4.67368421 15.1334211,4.67368421 C20.0968421,4.67368421 24.2565789,8.17184211 25.2828947,12.8321053" id="Fill-2" fill="#4DAAA7" sketch:type="MSShapeGroup"></path>
				<path d="M25.2828947,17.3052632 C24.2565789,21.9655263 20.0968421,25.4636842 15.1334211,25.4636842 C9.40105263,25.4636842 4.73842105,20.8002632 4.73842105,15.0686842 L4.73842105,4.45184211 C1.98078947,7.15184211 0.264473684,10.9128947 0.264473684,15.0686842 C0.264473684,23.2673684 6.93473684,29.9376316 15.1334211,29.9376316 C22.5718421,29.9376316 28.7510526,24.4468421 29.8326316,17.3052632 L25.2828947,17.3052632" id="Fill-3" fill="#31708F" sketch:type="MSShapeGroup"></path>
			</g>
		</g>
	</g>
</svg>